<svg version="1.1" id="Layer_1" xmlns="http://www.w3.org/2000/svg" xmlns:xlink="http://www.w3.org/1999/xlink" x="0px" y="0px"
	 width="100%" viewBox="0 0 224 224" enable-background="new 0 0 224 224" xml:space="preserve">
<path fill="#000000" opacity="1.000000" stroke="none" 
	d="
M112.658157,39.160419 
	C119.753731,39.098465 126.420700,38.896690 133.073715,39.116753 
	C141.844299,39.406857 145.505157,42.927513 145.824799,51.702618 
	C146.090897,59.008018 146.488327,66.354332 145.492279,73.649307 
	C144.682785,79.578178 141.272583,82.989311 135.270782,83.198120 
	C127.619919,83.464310 119.944069,83.489815 112.295464,83.193718 
	C106.128418,82.954994 102.111588,78.740685 101.923370,72.532417 
	C101.696381,65.045197 101.712708,57.542942 101.890350,50.053520 
	C102.035057,43.952663 104.993782,41.046890 112.658157,39.160419 
z"/>
<path fill="#000000" opacity="1.000000" stroke="none" 
	d="
M81.235519,159.396881 
	C81.243675,166.182541 81.372475,172.515121 81.201797,178.839630 
	C80.974640,187.256836 76.787872,191.234055 68.332191,191.296143 
	C61.836971,191.343842 55.339901,191.375946 48.845791,191.275970 
	C41.682472,191.165680 37.254280,187.078842 36.973644,179.886734 
	C36.694626,172.736191 36.729576,165.559967 36.970554,158.406586 
	C37.184685,152.050064 40.868549,147.742355 47.080936,147.428650 
	C55.370354,147.010056 63.719791,147.153122 72.011131,147.624008 
	C77.362213,147.927902 79.925545,151.597672 81.235519,159.396881 
z"/>
<path fill="#000000" opacity="1.000000" stroke="none" 
	d="
M133.431732,186.113327 
	C130.687210,190.031525 127.175758,191.397583 122.862610,191.328827 
	C116.199074,191.222610 109.531723,191.368271 102.867661,191.280136 
	C95.721428,191.185623 91.444397,187.359482 91.182907,180.389526 
	C90.908249,173.068558 90.886566,165.721268 91.165665,158.401169 
	C91.434311,151.354813 95.119698,147.521271 102.131386,147.304260 
	C110.111122,147.057266 118.121048,147.283997 126.098923,147.683105 
	C130.311737,147.893845 133.763809,150.555298 134.260330,154.634155 
	C135.521347,164.993454 136.337997,175.449188 133.431732,186.113327 
z"/>
<path fill="#000000" opacity="1.000000" stroke="none" 
	d="
M123.576736,108.022224 
	C123.643852,96.723160 127.148178,93.129494 137.903595,93.138283 
	C144.391678,93.143578 150.881409,93.321182 157.366943,93.529129 
	C162.292343,93.687057 166.418549,96.924614 167.164734,101.919067 
	C168.497147,110.837105 168.540375,119.853844 167.175415,128.773529 
	C166.357681,134.117172 162.397034,136.875549 157.326797,137.121246 
	C149.520782,137.499496 141.669968,137.516754 133.863541,137.148682 
	C127.317955,136.840073 123.716454,132.609619 123.603065,125.972374 
	C123.503532,120.146873 123.579041,114.318382 123.576736,108.022224 
z"/>
<path fill="#000000" opacity="1.000000" stroke="none" 
	d="
M78.006058,90.948959 
	C80.356972,89.629288 82.315247,88.322571 84.437851,87.389816 
	C90.144478,84.882118 95.607338,86.172775 98.900291,91.362366 
	C102.996559,97.817917 106.799706,104.486328 110.301437,111.283318 
	C112.866547,116.262291 111.480110,121.944160 106.768974,125.001854 
	C100.080086,129.343216 93.133179,133.345963 86.028763,136.968246 
	C80.985756,139.539474 75.512230,137.844910 72.455170,133.044968 
	C68.345169,126.591797 64.454124,119.977928 60.855640,113.226997 
	C58.027069,107.920456 59.736931,102.076225 64.801125,98.775085 
	C68.981285,96.050217 73.384171,93.667038 78.006058,90.948959 
z"/>
<path fill="#000000" opacity="1.000000" stroke="none" 
	d="
M189.029419,156.688431 
	C189.163818,164.604721 189.377182,172.095764 189.201401,179.577698 
	C189.028229,186.948608 184.521729,191.191940 177.127762,191.280365 
	C170.471756,191.359970 163.813461,191.348877 157.157211,191.279678 
	C149.771744,191.202881 145.214615,187.053802 144.928070,179.691345 
	C144.656448,172.712723 144.612488,165.701981 144.952805,158.729004 
	C145.327682,151.048172 149.581787,147.473923 157.315628,147.537262 
	C163.805740,147.590439 170.296463,147.564987 176.786743,147.602844 
	C184.053955,147.645233 186.424469,149.348801 189.029419,156.688431 
z"/>
</svg>