<svg version="1.1" id="Layer_1" xmlns="http://www.w3.org/2000/svg" xmlns:xlink="http://www.w3.org/1999/xlink" x="0px" y="0px"
	 width="100%" viewBox="0 0 224 224" enable-background="new 0 0 224 224" xml:space="preserve">
<path fill="#000000" opacity="1.000000" stroke="none" 
	d="
M124.025040,150.022263 
	C121.757706,146.346451 118.473671,146.040405 112.724472,149.209503 
	C112.302254,147.005676 111.056496,145.906540 108.865410,144.971069 
	C101.999306,142.039612 95.537971,138.379303 91.207855,131.829987 
	C88.027168,127.019188 88.297142,121.516724 92.126724,117.184090 
	C94.482048,114.519386 96.515656,114.521866 98.643379,117.290916 
	C100.460579,119.655823 101.815956,122.374710 104.257858,124.257294 
	C114.484856,132.141800 127.676353,132.100693 137.978149,124.147995 
	C143.809601,119.646278 148.278366,113.758736 153.676239,108.807045 
	C157.471252,105.325760 161.311188,101.765541 164.435898,97.705551 
	C173.633820,85.754578 170.903595,64.104706 152.793274,59.068245 
	C143.685867,56.535488 136.066376,58.062752 129.068741,63.624569 
	C123.633614,67.944496 118.505096,71.668770 111.062523,68.156639 
	C108.203308,66.807388 107.141251,65.641357 109.367149,63.129612 
	C119.015541,52.242088 130.583527,43.619591 145.251083,42.659306 
	C157.707565,41.843781 168.254852,48.167992 176.151413,58.120529 
	C180.771851,63.943928 183.769623,70.606911 185.553787,77.768845 
	C187.388641,85.134308 183.686676,91.409523 180.968979,97.771858 
	C177.874832,105.015480 171.797974,109.955490 166.412476,115.344345 
	C158.296432,123.465454 150.401855,131.827728 141.565491,139.206161 
	C137.527512,142.577911 132.633606,144.226120 128.044388,146.038452 
	C126.808960,147.459259 128.907379,148.676620 127.886322,149.992981 
	C126.840439,150.831619 125.700600,149.945343 124.286163,150.000671 
	C123.989334,149.995010 124.025040,150.022263 124.025040,150.022263 
z"/>
<path fill="#000000" opacity="1.000000" stroke="none" 
	d="
M123.971039,149.981812 
	C125.048592,152.048843 125.042595,153.598328 123.257431,155.721115 
	C116.064514,164.274399 108.625183,172.736191 99.402939,178.929672 
	C91.380753,184.317230 82.343864,186.681046 72.060974,183.630264 
	C58.993431,179.753326 50.517014,171.860031 44.133522,160.001846 
	C36.961708,146.679245 43.631294,128.286926 51.888355,119.900398 
	C60.751068,110.898720 69.344482,101.602661 78.880943,93.256332 
	C82.826988,89.802750 87.830330,88.880302 92.337799,86.918381 
	C96.030106,85.311272 100.404915,85.377007 103.287148,81.816544 
	C103.720909,81.280701 105.351753,81.157288 106.101715,81.519836 
	C113.921356,85.299889 122.684196,87.434601 128.775879,94.280518 
	C129.433426,95.019478 130.220490,95.687485 130.190521,96.811127 
	C124.595131,102.563225 123.145454,102.857338 116.150787,98.733917 
	C113.337006,97.075157 110.801231,95.858589 107.305260,96.710701 
	C104.334297,97.434845 101.738190,96.146507 100.715050,92.825027 
	C100.374008,91.717873 99.930862,90.631348 98.194122,89.762489 
	C95.415169,93.197800 93.705452,97.441666 90.269875,100.622383 
	C80.522484,109.646683 71.390533,119.334572 61.989315,128.734238 
	C48.661854,142.059509 54.454464,165.849289 74.192078,169.940231 
	C82.738045,171.711533 91.826591,170.803497 97.749199,163.408966 
	C102.881371,157.001328 110.600945,156.701340 116.975067,153.405304 
	C118.997200,152.359680 120.969643,150.663330 123.698036,150.096588 
	C124.025040,150.022263 123.989334,149.995010 123.971039,149.981812 
z"/>
<path fill="#000000" opacity="1.000000" stroke="none" 
	d="
M44.153618,168.083694 
	C41.323536,166.572586 38.252289,165.153549 38.959515,160.520035 
	C41.977360,162.500397 44.011112,164.539352 44.153618,168.083694 
z"/>
</svg>